HIERARCHY
ROOT pelvis
{
	OFFSET 0.003123 0.351407 -0.012037
	CHANNELS 6 Xposition Yposition Zposition Xrotation Yrotation Zrotation
	JOINT left_hip
	{
		OFFSET 0.058189 0.092763 0.026001
		CHANNELS 6 Xposition Yposition Zposition Zrotation Yrotation Xrotation
		JOINT left_knee
		{
			OFFSET 0.054695 0.378753 0.009396
			CHANNELS 6 Xposition Yposition Zposition Zrotation Yrotation Xrotation
			JOINT left_ankle
			{
				OFFSET -0.043453 0.403060 0.031876
				CHANNELS 6 Xposition Yposition Zposition Zrotation Yrotation Xrotation
				JOINT left_foot
				{
					OFFSET 0.047257 0.057997 -0.118216
					CHANNELS 6 Xposition Yposition Zposition Zrotation Yrotation Xrotation
					End Site
					{
						OFFSET 0.000000 0.000000 0.100000
					}
				}
			}
		}
	}
	JOINT right_hip
	{
		OFFSET -0.063267 0.103908 0.021250
		CHANNELS 6 Xposition Yposition Zposition Zrotation Yrotation Xrotation
		JOINT right_knee
		{
			OFFSET -0.044210 0.362380 0.016824
			CHANNELS 6 Xposition Yposition Zposition Zrotation Yrotation Xrotation
			JOINT right_ankle
			{
				OFFSET 0.015417 0.410728 0.020192
				CHANNELS 6 Xposition Yposition Zposition Zrotation Yrotation Xrotation
				JOINT right_foot
				{
					OFFSET -0.038812 0.058328 -0.119049
					CHANNELS 6 Xposition Yposition Zposition Zrotation Yrotation Xrotation
					End Site
					{
						OFFSET 0.000000 0.000000 0.100000
					}
				}
			}
		}
	}
	JOINT spine1
	{
		OFFSET -0.002763 -0.109891 0.027618
		CHANNELS 6 Xposition Yposition Zposition Zrotation Yrotation Xrotation
		JOINT spine2
		{
			OFFSET 0.009448 -0.131853 0.005940
			CHANNELS 6 Xposition Yposition Zposition Zrotation Yrotation Xrotation
			JOINT spine3
			{
				OFFSET -0.011330 -0.052235 -0.028447
				CHANNELS 6 Xposition Yposition Zposition Zrotation Yrotation Xrotation
				JOINT neck
				{
					OFFSET -0.012164 -0.165167 0.031615
					CHANNELS 6 Xposition Yposition Zposition Zrotation Yrotation Xrotation
					JOINT head
					{
						OFFSET 0.024783 -0.160452 -0.020737
						CHANNELS 6 Xposition Yposition Zposition Zrotation Yrotation Xrotation
						JOINT jaw
						{
							OFFSET -0.015765 0.000520 0.005639
							CHANNELS 6 Xposition Yposition Zposition Zrotation Yrotation Xrotation
							End Site
							{
								OFFSET 0.000000 0.000000 0.100000
							}
						}
						JOINT left_eye_smplhf
						{
							OFFSET 0.020502 -0.042642 -0.066147
							CHANNELS 6 Xposition Yposition Zposition Zrotation Yrotation Xrotation
							End Site
							{
								OFFSET 0.000000 0.000000 0.100000
							}
						}
						JOINT right_eye_smplhf
						{
							OFFSET -0.042697 -0.042642 -0.066147
							CHANNELS 6 Xposition Yposition Zposition Zrotation Yrotation Xrotation
							End Site
							{
								OFFSET 0.000000 0.000000 0.100000
							}
						}
					}
				}
				JOINT left_collar
				{
					OFFSET 0.046364 -0.084944 0.007220
					CHANNELS 6 Xposition Yposition Zposition Zrotation Yrotation Xrotation
					JOINT left_shoulder
					{
						OFFSET 0.119239 -0.057728 0.015461
						CHANNELS 6 Xposition Yposition Zposition Zrotation Yrotation Xrotation
						JOINT left_elbow
						{
							OFFSET 0.254123 0.072151 0.042459
							CHANNELS 6 Xposition Yposition Zposition Zrotation Yrotation Xrotation
							JOINT left_wrist
							{
								OFFSET 0.251987 -0.023221 0.002472
								CHANNELS 6 Xposition Yposition Zposition Zrotation Yrotation Xrotation
								JOINT left_index1
								{
									OFFSET 0.101902 0.008688 -0.019351
									CHANNELS 6 Xposition Yposition Zposition Zrotation Yrotation Xrotation
									JOINT left_index2
									{
										OFFSET 0.031949 -0.002218 -0.003010
										CHANNELS 6 Xposition Yposition Zposition Zrotation Yrotation Xrotation
										JOINT left_index3
										{
											OFFSET 0.022545 0.002350 -0.000055
											CHANNELS 6 Xposition Yposition Zposition Zrotation Yrotation Xrotation
											End Site
											{
												OFFSET 0.000000 0.000000 0.100000
											}
										}
									}
								}
								JOINT left_middle1
								{
									OFFSET 0.109398 0.006328 0.003981
									CHANNELS 6 Xposition Yposition Zposition Zrotation Yrotation Xrotation
									JOINT left_middle2
									{
										OFFSET 0.030611 -0.000807 0.004023
										CHANNELS 6 Xposition Yposition Zposition Zrotation Yrotation Xrotation
										JOINT left_middle3
										{
											OFFSET 0.023515 0.002009 0.004114
											CHANNELS 6 Xposition Yposition Zposition Zrotation Yrotation Xrotation
											End Site
											{
												OFFSET 0.000000 0.000000 0.100000
											}
										}
									}
								}
								JOINT left_pinky1
								{
									OFFSET 0.084047 0.014539 0.043750
									CHANNELS 6 Xposition Yposition Zposition Zrotation Yrotation Xrotation
									JOINT left_pinky2
									{
										OFFSET 0.015471 0.001132 0.011999
										CHANNELS 6 Xposition Yposition Zposition Zrotation Yrotation Xrotation
										JOINT left_pinky3
										{
											OFFSET 0.015533 0.001665 0.011217
											CHANNELS 6 Xposition Yposition Zposition Zrotation Yrotation Xrotation
											End Site
											{
												OFFSET 0.000000 0.000000 0.100000
											}
										}
									}
								}
								JOINT left_ring1
								{
									OFFSET 0.097444 0.009268 0.027345
									CHANNELS 6 Xposition Yposition Zposition Zrotation Yrotation Xrotation
									JOINT left_ring2
									{
										OFFSET 0.028047 -0.001485 0.005266
										CHANNELS 6 Xposition Yposition Zposition Zrotation Yrotation Xrotation
										JOINT left_ring3
										{
											OFFSET 0.022822 0.001458 0.007094
											CHANNELS 6 Xposition Yposition Zposition Zrotation Yrotation Xrotation
											End Site
											{
												OFFSET 0.000000 0.000000 0.100000
											}
										}
									}
								}
								JOINT left_thumb1
								{
									OFFSET 0.040636 0.017977 -0.025611
									CHANNELS 6 Xposition Yposition Zposition Zrotation Yrotation Xrotation
									JOINT left_thumb2
									{
										OFFSET 0.017016 -0.000976 -0.024978
										CHANNELS 6 Xposition Yposition Zposition Zrotation Yrotation Xrotation
										JOINT left_thumb3
										{
											OFFSET 0.020523 0.005160 -0.015523
											CHANNELS 6 Xposition Yposition Zposition Zrotation Yrotation Xrotation
											End Site
											{
												OFFSET 0.000000 0.000000 0.100000
											}
										}
									}
								}
							}
						}
					}
				}
				JOINT right_collar
				{
					OFFSET -0.047695 -0.084339 0.013400
					CHANNELS 6 Xposition Yposition Zposition Zrotation Yrotation Xrotation
					JOINT right_shoulder
					{
						OFFSET -0.102578 -0.053524 0.012669
						CHANNELS 6 Xposition Yposition Zposition Zrotation Yrotation Xrotation
						JOINT right_elbow
						{
							OFFSET -0.271150 0.036492 0.026467
							CHANNELS 6 Xposition Yposition Zposition Zrotation Yrotation Xrotation
							JOINT right_wrist
							{
								OFFSET -0.249267 0.004533 0.015325
								CHANNELS 6 Xposition Yposition Zposition Zrotation Yrotation Xrotation
								JOINT right_index1
								{
									OFFSET -0.099880 0.011783 -0.019600
									CHANNELS 6 Xposition Yposition Zposition Zrotation Yrotation Xrotation
									JOINT right_index2
									{
										OFFSET -0.031948 -0.002218 -0.003011
										CHANNELS 6 Xposition Yposition Zposition Zrotation Yrotation Xrotation
										JOINT right_index3
										{
											OFFSET -0.022545 0.002349 -0.000055
											CHANNELS 6 Xposition Yposition Zposition Zrotation Yrotation Xrotation
											End Site
											{
												OFFSET 0.000000 0.000000 0.100000
											}
										}
									}
								}
								JOINT right_middle1
								{
									OFFSET -0.107376 0.009422 0.003734
									CHANNELS 6 Xposition Yposition Zposition Zrotation Yrotation Xrotation
									JOINT right_middle2
									{
										OFFSET -0.030611 -0.000807 0.004023
										CHANNELS 6 Xposition Yposition Zposition Zrotation Yrotation Xrotation
										JOINT right_middle3
										{
											OFFSET -0.023515 0.002009 0.004114
											CHANNELS 6 Xposition Yposition Zposition Zrotation Yrotation Xrotation
											End Site
											{
												OFFSET 0.000000 0.000000 0.100000
											}
										}
									}
								}
								JOINT right_pinky1
								{
									OFFSET -0.082027 0.017634 0.043503
									CHANNELS 6 Xposition Yposition Zposition Zrotation Yrotation Xrotation
									JOINT right_pinky2
									{
										OFFSET -0.015471 0.001132 0.011999
										CHANNELS 6 Xposition Yposition Zposition Zrotation Yrotation Xrotation
										JOINT right_pinky3
										{
											OFFSET -0.015533 0.001665 0.011216
											CHANNELS 6 Xposition Yposition Zposition Zrotation Yrotation Xrotation
											End Site
											{
												OFFSET 0.000000 0.000000 0.100000
											}
										}
									}
								}
								JOINT right_ring1
								{
									OFFSET -0.095423 0.012362 0.027099
									CHANNELS 6 Xposition Yposition Zposition Zrotation Yrotation Xrotation
									JOINT right_ring2
									{
										OFFSET -0.028047 -0.001485 0.005266
										CHANNELS 6 Xposition Yposition Zposition Zrotation Yrotation Xrotation
										JOINT right_ring3
										{
											OFFSET -0.022822 0.001459 0.007093
											CHANNELS 6 Xposition Yposition Zposition Zrotation Yrotation Xrotation
											End Site
											{
												OFFSET 0.000000 0.000000 0.100000
											}
										}
									}
								}
								JOINT right_thumb1
								{
									OFFSET -0.038613 0.021074 -0.025861
									CHANNELS 6 Xposition Yposition Zposition Zrotation Yrotation Xrotation
									JOINT right_thumb2
									{
										OFFSET -0.017015 -0.000976 -0.024978
										CHANNELS 6 Xposition Yposition Zposition Zrotation Yrotation Xrotation
										JOINT right_thumb3
										{
											OFFSET -0.020526 0.005157 -0.015522
											CHANNELS 6 Xposition Yposition Zposition Zrotation Yrotation Xrotation
											End Site
											{
												OFFSET 0.000000 0.000000 0.100000
											}
										}
									}
								}
							}
						}
					}
				}
			}
		}
	}
}
MOTION
Frames: 4
Frame Time: 0.041667
0.003123 0.351407 -0.012037 0.000003 0.000000 0.000000 0.058189 0.092763 0.026001 6.411352 -10.814119 67.434615 0.054695 0.378753 0.009396 -15.151620 0.365973 -2.191258 -0.043453 0.403060 0.031876 27.697723 -12.435830 64.273467 0.047257 0.057997 -0.118216 0.000002 0.000001 0.000001 -0.063267 0.103908 0.021250 7.926312 6.676155 65.241175 -0.044210 0.362380 0.016824 5.321011 -0.739787 6.119062 0.015417 0.410728 0.020192 -17.152949 10.834353 58.945680 -0.038812 0.058328 -0.119049 -0.000002 0.000005 -0.000001 -0.002763 -0.109891 0.027618 -4.581639 -9.397140 -112.242555 0.009448 -0.131853 0.005940 14.661090 1.461348 -27.599183 -0.011330 -0.052235 -0.028447 3.415349 5.377344 37.972891 -0.012164 -0.165167 0.031615 -26.714164 1.332924 -10.651595 0.024783 -0.160452 -0.020737 84.644779 -47.139698 -112.392662 -0.015765 0.000520 0.005639 0.000005 -0.000004 -0.000002 0.020502 -0.042642 -0.066147 0.000005 -0.000002 -0.000001 -0.042697 -0.042642 -0.066147 0.000006 -0.000001 0.000000 0.046364 -0.084944 0.007220 -105.043153 4.164488 -24.048553 0.119239 -0.057728 0.015461 -12.236241 -0.839778 1.800615 0.254123 0.072151 0.042459 8.795782 -15.704405 -1.762310 0.251987 -0.023221 0.002472 -7.175674 3.333170 3.399441 0.101902 0.008688 -0.019351 13.401360 -5.520258 0.202534 0.031949 -0.002218 -0.003010 -9.226966 6.015046 -1.051660 0.022545 0.002350 -0.000055 0.000001 0.000000 0.000001 0.109398 0.006328 0.003981 12.083423 11.833812 -1.009055 0.030611 -0.000807 0.004023 -8.364032 -2.035363 1.283906 0.023515 0.002009 0.004114 -0.000001 0.000002 0.000001 0.084047 0.014539 0.043750 0.854492 39.641117 -6.172825 0.015471 0.001132 0.011999 -1.560746 -5.059680 1.447149 0.015533 0.001665 0.011217 -0.000003 0.000001 -0.000003 0.097444 0.009268 0.027345 14.040443 16.594583 -1.229252 0.028047 -0.001485 0.005266 -10.983706 2.316990 2.165020 0.022822 0.001458 0.007094 0.000000 0.000002 0.000000 0.040636 0.017977 -0.025611 7.287449 -61.210393 2.035945 0.017016 -0.000976 -0.024978 -8.810499 26.045495 -14.793017 0.020523 0.005160 -0.015523 0.000002 0.000001 0.000002 -0.047695 -0.084339 0.013400 51.156563 4.605255 -0.537712 -0.102578 -0.053524 0.012669 34.452751 1.326502 3.706488 -0.271150 0.036492 0.026467 -5.098722 -4.703200 -0.086460 -0.249267 0.004533 0.015325 9.916615 12.933959 -15.262966 -0.099880 0.011783 -0.019600 -16.402076 6.616305 0.138438 -0.031948 -0.002218 -0.003011 8.261854 -6.801490 -0.944331 -0.022545 0.002349 -0.000055 -0.000001 0.000003 0.000000 -0.107376 0.009422 0.003734 -14.318338 -9.575008 -0.451799 -0.030611 -0.000807 0.004023 5.242236 -4.190368 0.582094 -0.023515 0.002009 0.004114 0.000001 0.000001 0.000000 -0.082027 0.017634 0.043503 -3.285555 -39.541673 -6.405695 -0.015471 0.001132 0.011999 -1.055639 4.241432 -0.235107 -0.015533 0.001665 0.011216 0.000000 -0.000002 0.000000 -0.095423 0.012362 0.027099 -14.827615 -9.850939 -0.827179 -0.028047 -0.001485 0.005266 5.524056 -9.329494 1.232753 -0.022822 0.001459 0.007093 0.000000 -0.000004 0.000000 -0.038613 0.021074 -0.025861 -8.184168 55.599833 6.865234 -0.017015 -0.000976 -0.024978 9.986083 -17.485960 -12.323097 -0.020526 0.005157 -0.015522 0.000001 -0.000003 0.000000 
0.003123 0.351407 -0.012037 0.000003 0.000000 0.000000 0.058189 0.092763 0.026001 6.331793 -10.862792 67.444430 0.054695 0.378753 0.009396 -15.155454 0.364857 -2.220166 -0.043453 0.403060 0.031876 27.682294 -12.445722 64.293964 0.047257 0.057997 -0.118216 -0.000002 0.000002 -0.000001 -0.063267 0.103908 0.021250 7.865272 6.598710 65.235301 -0.044210 0.362380 0.016824 5.231125 -0.748479 6.184664 0.015417 0.410728 0.020192 -17.094925 10.845175 58.865173 -0.038812 0.058328 -0.119049 0.000000 -0.000001 0.000001 -0.002763 -0.109891 0.027618 -4.412828 -9.344909 -112.261501 0.009448 -0.131853 0.005940 14.598204 1.450499 -27.633800 -0.011330 -0.052235 -0.028447 3.683082 5.622829 37.993453 -0.012164 -0.165167 0.031615 -26.838153 1.435418 -10.527248 0.024783 -0.160452 -0.020737 84.555727 -47.053518 -112.188897 -0.015765 0.000520 0.005639 -0.000001 -0.000009 0.000001 0.020502 -0.042642 -0.066147 -0.000001 -0.000009 0.000001 -0.042697 -0.042642 -0.066147 0.000000 -0.000004 0.000003 0.046364 -0.084944 0.007220 -104.939908 4.306427 -23.861947 0.119239 -0.057728 0.015461 -12.367750 -0.868336 1.914735 0.254123 0.072151 0.042459 8.871474 -15.585845 -1.740979 0.251987 -0.023221 0.002472 -7.225312 3.644644 3.825774 0.101902 0.008688 -0.019351 13.482304 -5.390425 0.209512 0.031949 -0.002218 -0.003010 -9.227223 5.770253 -1.005881 0.022545 0.002350 -0.000055 -0.000001 -0.000002 -0.000002 0.109398 0.006328 0.003981 12.180974 11.996769 -1.044322 0.030611 -0.000807 0.004023 -8.422239 -2.282895 1.294737 0.023515 0.002009 0.004114 -0.000001 -0.000000 0.000005 0.084047 0.014539 0.043750 0.869719 39.693142 -6.226140 0.015471 0.001132 0.011999 -1.490633 -5.487722 1.388559 0.015533 0.001665 0.011217 0.000000 0.000002 0.000002 0.097444 0.009268 0.027345 14.146255 16.693542 -1.265814 0.028047 -0.001485 0.005266 -11.083967 2.063852 2.184719 0.022822 0.001458 0.007094 0.000000 0.000001 -0.000000 0.040636 0.017977 -0.025611 7.764695 -61.665065 1.448911 0.017016 -0.000976 -0.024978 -8.650383 26.422804 -14.814055 0.020523 0.005160 -0.015523 0.000002 -0.000001 0.000003 -0.047695 -0.084339 0.013400 51.126363 4.708162 -0.628752 -0.102578 -0.053524 0.012669 34.451911 1.146018 3.692415 -0.271150 0.036492 0.026467 -5.065917 -4.534780 -0.111332 -0.249267 0.004533 0.015325 9.866856 12.874041 -15.545347 -0.099880 0.011783 -0.019600 -16.401267 6.581601 0.137193 -0.031948 -0.002218 -0.003011 8.300976 -6.802737 -0.953538 -0.022545 0.002349 -0.000055 -0.000000 0.000000 0.000001 -0.107376 0.009422 0.003734 -14.379848 -9.593801 -0.436414 -0.030611 -0.000807 0.004023 5.470386 -4.092662 0.606730 -0.023515 0.002009 0.004114 0.000001 0.000003 0.000000 -0.082027 0.017634 0.043503 -3.257304 -39.528637 -6.409021 -0.015471 0.001132 0.011999 -1.200977 4.337431 -0.315844 -0.015533 0.001665 0.011216 0.000000 0.000003 0.000000 -0.095423 0.012362 0.027099 -14.849185 -9.858179 -0.823494 -0.028047 -0.001485 0.005266 5.460853 -9.495711 1.241376 -0.022822 0.001459 0.007093 -0.000000 -0.000000 -0.000000 -0.038613 0.021074 -0.025861 -8.405385 55.440775 6.686237 -0.017015 -0.000976 -0.024978 9.987023 -17.484608 -12.323976 -0.020526 0.005157 -0.015522 0.000002 -0.000003 0.000002 
0.003123 0.351407 -0.012037 0.000003 0.000000 0.000000 0.058189 0.092763 0.026001 6.403655 -10.829632 67.462748 0.054695 0.378753 0.009396 -15.143732 0.364881 -2.231073 -0.043453 0.403060 0.031876 27.693284 -12.476322 64.306743 0.047257 0.057997 -0.118216 -0.000002 0.000001 -0.000003 -0.063267 0.103908 0.021250 7.928432 6.619968 65.250976 -0.044210 0.362380 0.016824 5.251479 -0.748864 6.175323 0.015417 0.410728 0.020192 -17.106760 10.828761 58.890014 -0.038812 0.058328 -0.119049 -0.000002 0.000003 -0.000006 -0.002763 -0.109891 0.027618 -4.557200 -9.423905 -112.232453 0.009448 -0.131853 0.005940 14.576269 1.454707 -27.645935 -0.011330 -0.052235 -0.028447 3.500487 5.226413 38.018923 -0.012164 -0.165167 0.031615 -26.919304 1.403011 -10.736902 0.024783 -0.160452 -0.020737 83.746356 -46.836376 -110.957407 -0.015765 0.000520 0.005639 -0.000006 0.000000 0.000004 0.020502 -0.042642 -0.066147 -0.000004 0.000000 0.000001 -0.042697 -0.042642 -0.066147 -0.000005 -0.000000 0.000001 0.046364 -0.084944 0.007220 -104.826622 3.997037 -23.914813 0.119239 -0.057728 0.015461 -12.514297 -0.762965 1.897270 0.254123 0.072151 0.042459 9.051558 -15.405775 -1.698601 0.251987 -0.023221 0.002472 -7.433659 3.162486 0.395411 0.101902 0.008688 -0.019351 13.458438 -5.766597 0.168359 0.031949 -0.002218 -0.003010 -8.939030 6.107398 -1.029918 0.022545 0.002350 -0.000055 0.000001 0.000001 0.000001 0.109398 0.006328 0.003981 12.293333 11.769631 -0.996350 0.030611 -0.000807 0.004023 -8.415096 -2.005830 1.305906 0.023515 0.002009 0.004114 0.000002 -0.000000 -0.000006 0.084047 0.014539 0.043750 0.984368 39.784250 -6.260777 0.015471 0.001132 0.011999 -1.655172 -5.832433 1.509782 0.015533 0.001665 0.011217 0.000002 0.000001 0.000000 0.097444 0.009268 0.027345 14.430245 16.404670 -1.222069 0.028047 -0.001485 0.005266 -11.245497 2.429374 2.209386 0.022822 0.001458 0.007094 0.000003 -0.000000 -0.000003 0.040636 0.017977 -0.025611 7.281733 -61.466238 1.609547 0.017016 -0.000976 -0.024978 -8.005759 26.286142 -13.976012 0.020523 0.005160 -0.015523 -0.000003 -0.000002 0.000001 -0.047695 -0.084339 0.013400 51.157471 4.941791 -0.758731 -0.102578 -0.053524 0.012669 34.427965 1.069441 3.672733 -0.271150 0.036492 0.026467 -5.078946 -5.055455 -0.032331 -0.249267 0.004533 0.015325 9.896065 13.618539 -15.905909 -0.099880 0.011783 -0.019600 -16.441213 6.471568 0.135947 -0.031948 -0.002218 -0.003011 7.973106 -6.862241 -0.907512 -0.022545 0.002349 -0.000055 -0.000000 -0.000003 -0.000000 -0.107376 0.009422 0.003734 -14.512019 -9.765059 -0.398774 -0.030611 -0.000807 0.004023 5.212539 -4.318430 0.583507 -0.023515 0.002009 0.004114 0.000000 0.000001 0.000001 -0.082027 0.017634 0.043503 -3.220853 -39.632371 -6.418598 -0.015471 0.001132 0.011999 -1.315341 4.685953 -0.328315 -0.015533 0.001665 0.011216 0.000000 0.000003 0.000000 -0.095423 0.012362 0.027099 -14.694175 -9.847085 -0.846167 -0.028047 -0.001485 0.005266 5.202845 -9.642765 1.227244 -0.022822 0.001459 0.007093 -0.000000 0.000000 0.000001 -0.038613 0.021074 -0.025861 -8.601521 55.314646 6.560772 -0.017015 -0.000976 -0.024978 9.987400 -17.483479 -12.324268 -0.020526 0.005157 -0.015522 0.000003 -0.000003 0.000001 
0.003123 0.351407 -0.012037 0.000003 0.000000 0.000000 0.058189 0.092763 0.026001 6.400510 -10.847980 67.466956 0.054695 0.378753 0.009396 -15.154573 0.362665 -2.258705 -0.043453 0.403060 0.031876 27.685383 -12.491478 64.329126 0.047257 0.057997 -0.118216 0.000001 0.000001 0.000001 -0.063267 0.103908 0.021250 7.931279 6.648525 65.251475 -0.044210 0.362380 0.016824 5.300887 -0.747112 6.158067 0.015417 0.410728 0.020192 -17.141010 10.833413 58.908551 -0.038812 0.058328 -0.119049 -0.000002 -0.000000 -0.000005 -0.002763 -0.109891 0.027618 -4.605502 -9.423193 -112.248702 0.009448 -0.131853 0.005940 14.621623 1.449044 -27.581518 -0.011330 -0.052235 -0.028447 3.456525 5.311576 38.017236 -0.012164 -0.165167 0.031615 -26.819436 1.359305 -10.721712 0.024783 -0.160452 -0.020737 84.487152 -47.075672 -112.111620 -0.015765 0.000520 0.005639 0.000003 -0.000006 0.000002 0.020502 -0.042642 -0.066147 0.000003 -0.000004 0.000000 -0.042697 -0.042642 -0.066147 0.000000 -0.000001 0.000002 0.046364 -0.084944 0.007220 -105.046233 4.105474 -24.089068 0.119239 -0.057728 0.015461 -12.303215 -0.824865 1.816290 0.254123 0.072151 0.042459 8.885247 -15.590619 -1.739363 0.251987 -0.023221 0.002472 -7.071521 4.491894 6.011082 0.101902 0.008688 -0.019351 13.523121 -5.584477 0.171427 0.031949 -0.002218 -0.003010 -9.495723 5.434878 -0.984990 0.022545 0.002350 -0.000055 0.000001 -0.000000 0.000000 0.109398 0.006328 0.003981 12.042777 11.559786 -1.016067 0.030611 -0.000807 0.004023 -8.304596 -2.371893 1.262728 0.023515 0.002009 0.004114 0.000000 0.000002 0.000000 0.084047 0.014539 0.043750 0.960360 39.143059 -5.887819 0.015471 0.001132 0.011999 -1.371323 -5.005649 1.301291 0.015533 0.001665 0.011217 -0.000000 -0.000000 -0.000001 0.097444 0.009268 0.027345 13.656445 16.475601 -1.221136 0.028047 -0.001485 0.005266 -10.540947 1.770688 2.114966 0.022822 0.001458 0.007094 -0.000002 0.000001 0.000000 0.040636 0.017977 -0.025611 8.229787 -62.021704 1.029145 0.017016 -0.000976 -0.024978 -8.972508 26.071069 -15.005859 0.020523 0.005160 -0.015523 0.000001 0.000001 0.000002 -0.047695 -0.084339 0.013400 51.134607 4.932601 -0.764774 -0.102578 -0.053524 0.012669 34.441502 1.057263 3.678704 -0.271150 0.036492 0.026467 -5.122686 -4.922991 -0.053603 -0.249267 0.004533 0.015325 9.861183 13.719401 -17.078191 -0.099880 0.011783 -0.019600 -16.442205 6.418277 0.132018 -0.031948 -0.002218 -0.003011 8.099629 -6.576863 -0.927872 -0.022545 0.002349 -0.000055 -0.000000 0.000001 -0.000000 -0.107376 0.009422 0.003734 -14.547555 -9.809300 -0.391669 -0.030611 -0.000807 0.004023 5.174176 -3.956828 0.572747 -0.023515 0.002009 0.004114 0.000001 -0.000000 -0.000000 -0.082027 0.017634 0.043503 -3.262308 -39.747173 -6.395982 -0.015471 0.001132 0.011999 -1.444015 4.640808 -0.415548 -0.015533 0.001665 0.011216 0.000000 0.000003 -0.000000 -0.095423 0.012362 0.027099 -14.643017 -9.932628 -0.848165 -0.028047 -0.001485 0.005266 5.184693 -9.513653 1.210306 -0.022822 0.001459 0.007093 0.000000 -0.000001 -0.000000 -0.038613 0.021074 -0.025861 -8.552131 55.351395 6.594412 -0.017015 -0.000976 -0.024978 9.987501 -17.482337 -12.324283 -0.020526 0.005157 -0.015522 0.000002 0.000000 0.000002 
